<svg width="371" height="191" viewBox="0 0 371 191" fill="none" xmlns="http://www.w3.org/2000/svg">
<mask id="mask0" mask-type="alpha" maskUnits="userSpaceOnUse" x="0" y="0" width="371" height="191">
<path d="M0 0H371V190.667H0V0Z" fill="white"/>
</mask>
<g mask="url(#mask0)">
<path d="M0 0H371V190.667H0V0Z" fill="#1B315A"/>
<ellipse cx="57.0326" cy="28.3111" rx="1.72826" ry="1.73333" fill="#F5F5F5"/>
<ellipse cx="45.5109" cy="74.5333" rx="1.72826" ry="1.73333" fill="#F5F5F5"/>
<ellipse cx="80.0761" cy="16.7556" rx="1.72826" ry="1.73333" fill="#F5F5F5"/>
<ellipse cx="99.663" cy="37.5556" rx="1.72826" ry="1.73333" fill="#F5F5F5"/>
<ellipse cx="130.772" cy="23.6889" rx="1.72826" ry="1.73333" fill="#F5F5F5"/>
<ellipse cx="161.88" cy="68.7556" rx="1.72826" ry="1.73333" fill="#F5F5F5"/>
<ellipse cx="206.815" cy="108.044" rx="1.72826" ry="1.73333" fill="#F5F5F5"/>
<ellipse cx="205.663" cy="54.8889" rx="1.72826" ry="1.73333" fill="#F5F5F5"/>
<ellipse cx="195.293" cy="6.35556" rx="1.72826" ry="1.73333" fill="#F5F5F5"/>
<ellipse cx="272.489" cy="13.2889" rx="1.72826" ry="1.73333" fill="#F5F5F5"/>
<ellipse cx="349.685" cy="47.9556" rx="1.72824" ry="1.73333" fill="#F5F5F5"/>
<ellipse cx="287.467" cy="82.6222" rx="1.72824" ry="1.73333" fill="#F5F5F5"/>
<ellipse cx="341.62" cy="117.289" rx="1.72826" ry="1.73333" fill="#F5F5F5"/>
<ellipse cx="86.4131" cy="50.8444" rx="63.3696" ry="63.5556" fill="url(#paint0_radial)"/>
<path fill-rule="evenodd" clip-rule="evenodd" d="M77.1957 56.6222C87.3769 56.6222 95.6305 48.3445 95.6305 38.1333C95.6305 33.2226 93.7215 28.7589 90.6073 25.4482C97.582 28.0837 102.544 34.8385 102.544 42.7556C102.544 52.9667 94.29 61.2445 84.1087 61.2445C78.8239 61.2445 74.0585 59.0141 70.6971 55.4407C72.7182 56.2044 74.9083 56.6222 77.1957 56.6222Z" fill="#E7DE96"/>
<path d="M116.37 69.3334C91.9435 70.2578 24.7717 151.763 -5.76086 192.4L237.348 202.8C207.199 157.926 140.796 68.4089 116.37 69.3334Z" fill="#0E1A2D"/>
<path d="M116.37 69.3334C91.9435 70.2578 24.7717 151.763 -5.76086 192.4L237.348 202.8C207.199 157.926 140.796 68.4089 116.37 69.3334Z" fill="url(#paint1_linear)"/>
<path d="M279.978 111.511C260.622 112.436 199.71 178.148 171.674 210.889H388.859C360.63 177.378 299.335 110.587 279.978 111.511Z" fill="#08101C"/>
<path d="M279.978 111.511C260.622 112.436 199.71 178.148 171.674 210.889H388.859C360.63 177.378 299.335 110.587 279.978 111.511Z" fill="url(#paint2_linear)"/>
</g>
<defs>
<radialGradient id="paint0_radial" cx="0" cy="0" r="1" gradientUnits="userSpaceOnUse" gradientTransform="translate(86.4131 50.8444) rotate(90) scale(54.1399 53.9815)">
<stop stop-color="#E6DE96" stop-opacity="0.16"/>
<stop offset="1" stop-color="#E6DE96" stop-opacity="0"/>
</radialGradient>
<linearGradient id="paint1_linear" x1="115.793" y1="69.3262" x2="115.793" y2="202.8" gradientUnits="userSpaceOnUse">
<stop stop-color="white" stop-opacity="0.05"/>
<stop offset="1" stop-color="white" stop-opacity="0"/>
</linearGradient>
<linearGradient id="paint2_linear" x1="280.266" y1="111.502" x2="280.266" y2="210.889" gradientUnits="userSpaceOnUse">
<stop stop-color="white" stop-opacity="0.08"/>
<stop offset="1" stop-color="white" stop-opacity="0"/>
</linearGradient>
</defs>
</svg>
