<?xml version="1.0" encoding="UTF-8"?>
<svg width="372" height="372" fill="none" version="1.1" viewBox="0 0 372 372" xmlns="http://www.w3.org/2000/svg" xmlns:cc="http://creativecommons.org/ns#" xmlns:dc="http://purl.org/dc/elements/1.1/" xmlns:rdf="http://www.w3.org/1999/02/22-rdf-syntax-ns#">
 <metadata>
  <rdf:RDF>
   <cc:Work rdf:about="">
    <dc:format>image/svg+xml</dc:format>
    <dc:type rdf:resource="http://purl.org/dc/dcmitype/StillImage"/>
    <dc:title/>
   </cc:Work>
  </rdf:RDF>
 </metadata>
 <g transform="translate(1.054 -.036)" fill="#000">
  <path d="m188.98 5.22c0.336 0 0.6 0.108 0.792 0.324 0.204 0.204 0.306 0.48 0.306 0.828v10.566c0 0.348-0.102 0.63-0.306 0.846s-0.468 0.324-0.792 0.324c-0.384 0-0.678-0.138-0.882-0.414l-6.57-8.55v7.794c0 0.348-0.096 0.63-0.288 0.846s-0.456 0.324-0.792 0.324-0.6-0.108-0.792-0.324-0.288-0.498-0.288-0.846v-10.566c0-0.348 0.102-0.624 0.306-0.828 0.204-0.216 0.474-0.324 0.81-0.324 0.372 0 0.66 0.138 0.864 0.414l6.552 8.514v-7.776c0-0.348 0.096-0.624 0.288-0.828 0.204-0.216 0.468-0.324 0.792-0.324z"/>
  <path d="m184.24 353.84c0.924 0 1.8 0.12 2.628 0.36 0.816 0.252 1.482 0.588 1.998 1.008 0.276 0.204 0.414 0.492 0.414 0.864 0 0.252-0.072 0.468-0.216 0.648-0.156 0.192-0.336 0.288-0.54 0.288-0.216 0-0.462-0.084-0.738-0.252-0.516-0.372-1.056-0.642-1.62-0.81s-1.188-0.252-1.872-0.252c-0.876 0-1.548 0.15-2.016 0.45-0.468 0.312-0.702 0.762-0.702 1.35 0 0.456 0.222 0.804 0.666 1.044 0.432 0.252 1.158 0.492 2.178 0.72 1.056 0.228 1.914 0.492 2.574 0.792s1.158 0.684 1.494 1.152 0.504 1.062 0.504 1.782c0 0.744-0.21 1.41-0.63 1.998s-1.002 1.044-1.746 1.368c-0.756 0.336-1.602 0.504-2.538 0.504-1.716 0-3.114-0.456-4.194-1.368-0.156-0.132-0.264-0.264-0.324-0.396-0.072-0.12-0.108-0.276-0.108-0.468 0-0.252 0.078-0.474 0.234-0.666 0.144-0.18 0.318-0.27 0.522-0.27 0.12 0 0.234 0.018 0.342 0.054 0.096 0.036 0.228 0.102 0.396 0.198 0.492 0.36 0.972 0.624 1.44 0.792 0.456 0.18 1.02 0.27 1.692 0.27 0.816 0 1.464-0.168 1.944-0.504 0.468-0.324 0.702-0.78 0.702-1.368 0-0.492-0.21-0.87-0.63-1.134s-1.134-0.51-2.142-0.738c-1.068-0.24-1.932-0.51-2.592-0.81-0.672-0.288-1.182-0.66-1.53-1.116-0.36-0.456-0.54-1.026-0.54-1.71 0-0.744 0.21-1.404 0.63-1.98 0.408-0.564 0.99-1.008 1.746-1.332 0.744-0.312 1.602-0.468 2.574-0.468z"/>
  <path d="m5.922 178.72c-0.24-0.084-0.42-0.216-0.54-0.396-0.12-0.192-0.18-0.402-0.18-0.63 0-0.288 0.09-0.534 0.27-0.738 0.18-0.216 0.42-0.324 0.72-0.324 0.108 0 0.264 0.03 0.468 0.09l10.71 3.87c0.24 0.096 0.426 0.258 0.558 0.486 0.132 0.216 0.198 0.456 0.198 0.72s-0.066 0.51-0.198 0.738-0.318 0.384-0.558 0.468l-8.478 2.988 8.478 3.042c0.24 0.096 0.426 0.258 0.558 0.486 0.132 0.216 0.198 0.456 0.198 0.72s-0.066 0.51-0.198 0.738c-0.132 0.216-0.318 0.366-0.558 0.45l-10.71 3.87c-0.18 0.06-0.336 0.09-0.468 0.09-0.3 0-0.54-0.108-0.72-0.324-0.18-0.228-0.27-0.492-0.27-0.792 0-0.24 0.06-0.456 0.18-0.648s0.3-0.33 0.54-0.414l8.802-3.06-8.748-3.15c-0.24-0.084-0.426-0.222-0.558-0.414-0.144-0.192-0.216-0.402-0.216-0.63s0.072-0.438 0.216-0.63c0.132-0.204 0.324-0.348 0.576-0.432l8.838-3.06z"/>
  <path d="m352 182.48c0-0.348 0.096-0.624 0.288-0.828 0.192-0.192 0.462-0.288 0.81-0.288h10.494c0.348 0 0.618 0.096 0.81 0.288 0.192 0.204 0.288 0.48 0.288 0.828v6.498c0 0.348-0.078 0.618-0.234 0.81s-0.378 0.288-0.666 0.288c-0.3 0-0.534-0.096-0.702-0.288-0.156-0.192-0.234-0.462-0.234-0.81v-5.346h-3.492v4.986c0 0.348-0.078 0.618-0.234 0.81s-0.384 0.288-0.684 0.288c-0.288 0-0.51-0.096-0.666-0.288s-0.234-0.462-0.234-0.81v-4.986h-3.708v5.346c0 0.348-0.084 0.618-0.252 0.81-0.156 0.192-0.384 0.288-0.684 0.288-0.288 0-0.51-0.096-0.666-0.288s-0.234-0.462-0.234-0.81z"/>
 </g>
 <g transform="translate(1)">
  <path d="m185 51 18.187 135h-36.374z" fill="#d12222"/>
  <path d="m185 321 18.187-135h-36.374z" fill="#c5c5c5"/>
  <circle cx="185" cy="186" r="145.5" stroke="#59b657" stroke-width="5"/>
  <g fill="#c4c4c4">
   <circle cx="185" cy="38" r="8"/>
   <circle cx="333" cy="186" r="8"/>
   <circle cx="185" cy="334" r="8"/>
   <circle cx="37" cy="186" r="8"/>
  </g>
 </g>
</svg>
