<svg width="32" height="32" viewBox="0 0 32 32" fill="none" xmlns="http://www.w3.org/2000/svg">
<path d="M30.4625 19.7313L27.8 18.1938C28.0687 16.7437 28.0687 15.2562 27.8 13.8062L30.4625 12.2688C30.7687 12.0938 30.9062 11.7312 30.8062 11.3938C30.1125 9.16875 28.9312 7.15625 27.3875 5.48125C27.15 5.225 26.7625 5.1625 26.4625 5.3375L23.8 6.875C22.6812 5.9125 21.3937 5.16875 20 4.68125V1.6125C20 1.2625 19.7562 0.95625 19.4125 0.88125C17.1187 0.36875 14.7687 0.39375 12.5875 0.88125C12.2437 0.95625 12 1.2625 12 1.6125V4.6875C10.6125 5.18125 9.32498 5.925 8.19998 6.88125L5.54373 5.34375C5.23748 5.16875 4.85623 5.225 4.61873 5.4875C3.07498 7.15625 1.89373 9.16875 1.19998 11.4C1.09373 11.7375 1.23748 12.1 1.54373 12.275L4.20623 13.8125C3.93748 15.2625 3.93748 16.75 4.20623 18.2L1.54373 19.7375C1.23748 19.9125 1.09998 20.275 1.19998 20.6125C1.89373 22.8375 3.07498 24.85 4.61873 26.525C4.85623 26.7812 5.24373 26.8438 5.54373 26.6688L8.20623 25.1313C9.32498 26.0938 10.6125 26.8375 12.0062 27.325V30.4C12.0062 30.75 12.25 31.0562 12.5937 31.1313C14.8875 31.6438 17.2375 31.6187 19.4187 31.1313C19.7625 31.0562 20.0062 30.75 20.0062 30.4V27.325C21.3937 26.8313 22.6812 26.0875 23.8062 25.1313L26.4687 26.6688C26.775 26.8438 27.1562 26.7875 27.3937 26.525C28.9375 24.8562 30.1187 22.8438 30.8125 20.6125C30.9062 20.2687 30.7687 19.9062 30.4625 19.7313ZM16 21C13.2437 21 11 18.7563 11 16C11 13.2437 13.2437 11 16 11C18.7562 11 21 13.2437 21 16C21 18.7563 18.7562 21 16 21Z" fill="white"/>
</svg>
