<svg width="31" height="32" viewBox="0 0 31 32" fill="none" xmlns="http://www.w3.org/2000/svg">
<path d="M14.0863 14.5856C13.305 15.3669 13.305 16.6331 14.0863 17.4137C14.8669 18.195 16.1338 18.195 16.9144 17.4137C17.6956 16.6325 17.6956 15.3662 16.9144 14.5856C16.1331 13.805 14.8669 13.805 14.0863 14.5856ZM15.5 0.5C6.93937 0.5 0 7.43937 0 16C0 24.5606 6.93937 31.5 15.5 31.5C24.0606 31.5 31 24.5606 31 16C31 7.43937 24.0606 0.5 15.5 0.5ZM23.3838 9.75313L19.2606 18.775C19.0612 19.2113 18.7113 19.5612 18.275 19.7606L9.25375 23.8838C8.21312 24.3594 7.14063 23.2869 7.61625 22.2463L11.74 13.2244C11.9394 12.7881 12.2893 12.4382 12.7256 12.2388L21.7469 8.11563C22.7875 7.64063 23.8594 8.7125 23.3838 9.75313V9.75313Z" fill="white"/>
</svg>
