<svg width="32" height="26" viewBox="0 0 32 26" fill="none" xmlns="http://www.w3.org/2000/svg">
<g clip-path="url(#clip0)">
<path d="M0 24C0 24.8835 0.7165 25.6 1.6 25.6H4.8C5.6835 25.6 6.4 24.8835 6.4 24V8H0V24ZM28.958 14.4C29.851 13.5305 30.4 12.533 30.4 11.4545C30.4 8.8115 28.3105 6.765 26.004 5.3095C23.907 3.986 21.9725 2.421 20.406 0.4985L20 0L19.594 0.4985C18.0275 2.421 16.0935 3.9865 13.996 5.3095C11.6895 6.765 9.6 8.8115 9.6 11.4545C9.6 12.533 10.149 13.5305 11.042 14.4H28.958ZM30.4 16H9.6C8.7165 16 8 16.7165 8 17.6V24C8 24.8835 8.7165 25.6 9.6 25.6H11.2V22.4C11.2 21.5165 11.9165 20.8 12.8 20.8C13.6835 20.8 14.4 21.5165 14.4 22.4V25.6H17.6V22C17.6 19.6 20 18.4 20 18.4C20 18.4 22.4 19.6 22.4 22V25.6H25.6V22.4C25.6 21.5165 26.3165 20.8 27.2 20.8C28.0835 20.8 28.8 21.5165 28.8 22.4V25.6H30.4C31.2835 25.6 32 24.8835 32 24V17.6C32 16.7165 31.2835 16 30.4 16ZM3.2 0C3.2 0 0 1.6 0 4.8V6.4H6.4V4.8C6.4 1.6 3.2 0 3.2 0Z" fill="white"/>
</g>
<defs>
<clipPath id="clip0">
<rect width="32" height="25.6" fill="white"/>
</clipPath>
</defs>
</svg>
