<?xml version="1.0" encoding="UTF-8"?>
<!-- Created with Inkscape (http://www.inkscape.org/) -->
<svg width="7.9375" height="7.294" version="1.1" viewBox="0 0 7.9375 7.294" xmlns="http://www.w3.org/2000/svg" xmlns:cc="http://creativecommons.org/ns#" xmlns:dc="http://purl.org/dc/elements/1.1/" xmlns:rdf="http://www.w3.org/1999/02/22-rdf-syntax-ns#">
 <metadata>
  <rdf:RDF>
   <cc:Work rdf:about="">
    <dc:format>image/svg+xml</dc:format>
    <dc:type rdf:resource="http://purl.org/dc/dcmitype/StillImage"/>
    <dc:title/>
   </cc:Work>
  </rdf:RDF>
 </metadata>
 <g transform="translate(226.97 -71.103)">
  <g transform="matrix(.26458 0 0 .26458 -126.49 30.512)" fill="none">
   <path d="m-364.8 180.98-14.29-0.816c-0.192-0.011-0.3725-0.095-0.5045-0.235s-0.2055-0.325-0.2055-0.517v-20.71c0-0.3275 0.2125-0.62 0.5275-0.7175l14.472-4.5725z" fill="#2f2f2f"/>
   <path d="m-350.51 180.17-14.29 0.816v-27.568l14.472 4.57c0.3125 0.1 0.5275 0.39 0.5275 0.7175v20.712c0 0.4-0.3125 0.73-0.71 0.752z" fill="#454a4c"/>
   <path d="m-349.8 164.54-15-3.275v-2.485l15 3.83z" fill="#fbc21a"/>
   <path d="m-364.8 163.72v2.66l1.0575 0.1525v-2.615z" fill="#ffca28"/>
   <path d="m-361.82 165.84c-2e-3 0.51-0.2375 0.8875-0.52 0.8425-0.285-0.045-0.5125-0.4975-0.5075-1.0075 2e-3 -0.51 0.2375-0.8875 0.52-0.8425s0.51 0.4975 0.5075 1.0075z" fill="#ffca28"/>
   <g fill="#fbc21a">
    <path d="m-362.05 164.85c-2e-3 0.305-0.1325 0.53-0.295 0.5025-0.16-0.0275-0.29-0.295-0.2875-0.6 2e-3 -0.305 0.295-0.5025 0.295-0.5025s0.29 0.295 0.2875 0.6z"/>
    <path d="m-355.71 166.82c-2e-3 0.46-0.2125 0.7975-0.4675 0.7575s-0.46-0.4475-0.4575-0.9075c2e-3 -0.46 0.2125-0.7975 0.4675-0.7575 0.2575 0.04 0.46 0.4475 0.4575 0.9075z"/>
    <path d="m-355.91 165.93c-2e-3 0.2725-0.12 0.475-0.265 0.45s-0.26-0.265-0.2575-0.54c2e-3 -0.2725 0.265-0.45 0.265-0.45s0.2575 0.265 0.2575 0.54z"/>
    <path d="m-350.71 167.62c-2e-3 0.4075-0.165 0.71-0.365 0.6725s-0.3575-0.3975-0.355-0.805c2e-3 -0.4075 0.165-0.71 0.365-0.6725 0.1975 0.0375 0.3575 0.3975 0.355 0.805z"/>
    <path d="m-350.86 166.83c-2e-3 0.2425-0.0925 0.4225-0.205 0.4s-0.2025-0.235-0.2-0.48c2e-3 -0.245 0.205-0.4 0.205-0.4s0.2025 0.235 0.2 0.48z"/>
    <path d="m-361.02 164.42v2.4975l3.665 0.53v-2.3475z"/>
    <path d="m-355.1 165.52v2.2525l3.1025 0.45v-2.1275z"/>
    <path d="m-349.8 166.51-0.36-0.065v2.0525l0.36 0.0475z"/>
    <path d="m-364.8 163.72v2.66l1.0575 0.1525v-2.615z"/>
   </g>
   <g fill="#f79329">
    <path d="m-364.8 161.27-15 3.275v-1.93l15-3.83z"/>
    <path d="m-367.77 165.84c2e-3 0.51 0.2375 0.8875 0.52 0.8425 0.285-0.045 0.5125-0.4975 0.5075-1.0075-2e-3 -0.51-0.2375-0.8875-0.52-0.8425s-0.51 0.4975-0.5075 1.0075z"/>
    <path d="m-367.54 164.85c2e-3 0.305 0.1325 0.53 0.295 0.5025 0.16-0.0275 0.29-0.295 0.2875-0.6-2e-3 -0.305-0.295-0.5025-0.295-0.5025s-0.29 0.295-0.2875 0.6z"/>
   </g>
   <path d="m-373.88 166.82c2e-3 0.46 0.2125 0.7975 0.4675 0.7575s0.46-0.4475 0.4575-0.9075c-2e-3 -0.46-0.2125-0.7975-0.4675-0.7575s-0.46 0.4475-0.4575 0.9075z" fill="#ff8f00"/>
   <path d="m-373.68 165.93c2e-3 0.2725 0.12 0.475 0.265 0.45s0.26-0.265 0.2575-0.54c-2e-3 -0.2725-0.265-0.45-0.265-0.45s-0.2575 0.265-0.2575 0.54z" fill="#f79329"/>
   <path d="m-378.89 167.62c2e-3 0.4075 0.165 0.71 0.365 0.6725s0.3575-0.3975 0.355-0.805c-2e-3 -0.4075-0.165-0.71-0.365-0.6725-0.1975 0.0375-0.3575 0.3975-0.355 0.805z" fill="#ff8f00"/>
   <g fill="#f79329">
    <path d="m-378.73 166.83c2e-3 0.2425 0.0925 0.4225 0.205 0.4s0.2025-0.235 0.2-0.48c-2e-3 -0.245-0.205-0.4-0.205-0.4s-0.2025 0.235-0.2 0.48z"/>
    <path d="m-368.57 164.42v2.4975l-3.665 0.53v-2.3475z"/>
    <path d="m-374.49 165.52v2.2525l-3.1025 0.45v-2.1275z"/>
   </g>
   <path d="m-379.8 166.51 0.36-0.065v2.0525l-0.36 0.0475z" fill="#ff8f00"/>
   <path d="m-364.8 163.72-1.0475 0.195v2.615l1.0475-0.15z" fill="#f79329"/>
   <path d="m-364.8 159.77c-1.4175 0-1.92 1.2425-3.73 1.605-1.77 0.355-1.875-0.395-3.27-0.105-1.41 0.295-1.22 1.1775-2.595 1.4275-1.3825 0.2525-1.365-0.4275-2.6975-0.155-1.3 0.265-1.435 1.2575-2.7 1.2575" stroke="#ffb300" stroke-miterlimit="10" stroke-width=".5"/>
   <path d="m-364.8 159.77c1.4175 0 1.92 1.2425 3.73 1.605 1.77 0.355 1.875-0.395 3.27-0.105 1.41 0.295 1.355 1.23 2.73 1.48 1.3825 0.2525 1.23-0.48 2.5625-0.2075 1.3 0.265 1.435 1.2575 2.7 1.2575" stroke="#ffa000" stroke-miterlimit="10" stroke-width=".5"/>
  </g>
 </g>
</svg>
