<svg width="37" height="32" viewBox="0 0 37 32" fill="none" xmlns="http://www.w3.org/2000/svg">
<path d="M10.8675 16H13.9317V18.6667H10.8675V16ZM32.3168 8V26.6667C32.3168 27.3739 31.9939 28.0522 31.4193 28.5523C30.8447 29.0524 30.0653 29.3333 29.2526 29.3333H7.80332C6.99065 29.3333 6.21126 29.0524 5.63661 28.5523C5.06197 28.0522 4.73914 27.3739 4.73914 26.6667V8C4.73914 7.29275 5.06197 6.61448 5.63661 6.11438C6.21126 5.61428 6.99065 5.33333 7.80332 5.33333H9.33541V2.66666H12.3996V5.33333H24.6563V2.66666H27.7205V5.33333H29.2526C30.0653 5.33333 30.8447 5.61428 31.4193 6.11438C31.9939 6.61448 32.3168 7.29275 32.3168 8ZM7.80332 10.6667H29.2526V8H7.80332V10.6667ZM29.2526 26.6667V13.3333H7.80332V26.6667H29.2526ZM23.1242 18.6667V16H26.1884V18.6667H23.1242ZM16.9959 18.6667V16H20.06V18.6667H16.9959ZM10.8675 21.3333H13.9317V24H10.8675V21.3333ZM23.1242 24V21.3333H26.1884V24H23.1242ZM16.9959 24V21.3333H20.06V24H16.9959Z" fill="#1F1F1F"/>
</svg>
