<svg width="24" height="24" viewBox="0 0 24 24" fill="none" xmlns="http://www.w3.org/2000/svg">
<path d="M9.99999 21H14C14 21.5304 13.7893 22.0391 13.4142 22.4142C13.0391 22.7893 12.5304 23 12 23C11.4696 23 10.9608 22.7893 10.5858 22.4142C10.2107 22.0391 9.99999 21.5304 9.99999 21ZM21 19V20H2.99999V19L4.99999 17V11C4.99999 7.9 7.02999 5.17 9.99999 4.29V4C9.99999 3.46957 10.2107 2.96086 10.5858 2.58579C10.9608 2.21071 11.4696 2 12 2C12.5304 2 13.0391 2.21071 13.4142 2.58579C13.7893 2.96086 14 3.46957 14 4V4.29C16.97 5.17 19 7.9 19 11V17L21 19ZM17 11C17 9.67392 16.4732 8.40215 15.5355 7.46447C14.5978 6.52678 13.3261 6 12 6C10.6739 6 9.40214 6.52678 8.46445 7.46447C7.52677 8.40215 6.99999 9.67392 6.99999 11V18H17V11ZM19.75 3.19L18.33 4.61C19.1758 5.44542 19.8473 6.44042 20.3056 7.53732C20.7639 8.63422 21 9.8112 21 11H23C23 8.07 21.84 5.25 19.75 3.19ZM0.999988 11H2.99999C2.99999 8.6 3.95999 6.3 5.66999 4.61L4.24999 3.19C3.21787 4.21157 2.39906 5.42807 1.84113 6.76881C1.2832 8.10955 0.997285 9.54781 0.999988 11Z" fill="black"/>
</svg>
