<svg width="24" height="24" viewBox="0 0 24 24" fill="none" xmlns="http://www.w3.org/2000/svg">
<path d="M11.9649 20C14.0804 20 16.1093 19.1571 17.6052 17.6569C19.1011 16.1566 19.9415 14.1217 19.9415 12C19.9415 9.87827 19.1011 7.84344 17.6052 6.34315C16.1093 4.84286 14.0804 4 11.9649 4C9.84936 4 7.82048 4.84286 6.32458 6.34315C4.82868 7.84344 3.98829 9.87827 3.98829 12C3.98829 14.1217 4.82868 16.1566 6.32458 17.6569C7.82048 19.1571 9.84936 20 11.9649 20ZM11.9649 2C13.2743 2 14.5708 2.25866 15.7805 2.7612C16.9902 3.26375 18.0894 4.00035 19.0153 4.92893C19.9411 5.85752 20.6756 6.95991 21.1766 8.17317C21.6777 9.38642 21.9356 10.6868 21.9356 12C21.9356 14.6522 20.8851 17.1957 19.0153 19.0711C17.1454 20.9464 14.6093 22 11.9649 22C6.45106 22 1.99414 17.5 1.99414 12C1.99414 9.34784 3.04463 6.8043 4.9145 4.92893C6.78438 3.05357 9.32048 2 11.9649 2ZM12.4634 7V12.25L16.9502 14.92L16.2024 16.15L10.9678 13V7H12.4634Z" fill="#1F1F1F"/>
</svg>
